<svg width="60" height="44" viewBox="0 0 60 44" fill="none" xmlns="http://www.w3.org/2000/svg">
<path d="M11.8247 6.72363H10.7261C10.9263 5.83496 11.3096 5.15137 11.876 4.67285C12.4424 4.19434 13.1113 3.95508 13.8828 3.95508C14.4443 3.95508 14.9668 4.08447 15.4502 4.34326C15.9385 4.59717 16.3145 4.94141 16.5781 5.37598C16.8467 5.81055 16.981 6.26465 16.981 6.73828C16.981 7.66602 16.5195 8.40088 15.5967 8.94287C16.1143 9.15283 16.5391 9.46045 16.8711 9.86572C17.3398 10.437 17.5742 11.0767 17.5742 11.7847C17.5742 12.395 17.4131 12.9785 17.0908 13.5352C16.7686 14.0869 16.3291 14.5142 15.7725 14.8169C15.2158 15.1196 14.5933 15.271 13.9048 15.271C12.9771 15.271 12.2031 15.0049 11.583 14.4727C10.9629 13.9355 10.5576 13.1494 10.3672 12.1143H11.4219C11.6074 12.8125 11.8735 13.3179 12.2202 13.6304C12.6646 14.0259 13.231 14.2236 13.9194 14.2236C14.7007 14.2236 15.3281 13.9893 15.8018 13.5205C16.2754 13.0518 16.5122 12.5024 16.5122 11.8726C16.5122 11.4526 16.3926 11.0596 16.1533 10.6934C15.9189 10.3271 15.6016 10.0513 15.2012 9.86572C14.8057 9.68018 14.1904 9.56543 13.3555 9.52148V8.53271C13.8486 8.53271 14.2979 8.44727 14.7031 8.27637C15.1084 8.10059 15.4014 7.87842 15.582 7.60986C15.7676 7.34131 15.8604 7.04834 15.8604 6.73096C15.8604 6.26221 15.6724 5.85693 15.2964 5.51514C14.9253 5.17334 14.4541 5.00244 13.8828 5.00244C13.4189 5.00244 13.0186 5.13428 12.6816 5.39795C12.3447 5.65674 12.0591 6.09863 11.8247 6.72363Z" fill="#FDDE3B"/>
<g clip-path="url(#clip0_0_663)">
<path d="M9 34.0547C9.55228 34.0547 10 33.607 10 33.0547C10 32.5024 9.55228 32.0547 9 32.0547C8.44772 32.0547 8 32.5024 8 33.0547C8 33.607 8.44772 34.0547 9 34.0547Z" stroke="white" stroke-width="2" stroke-linecap="round" stroke-linejoin="round"/>
<path d="M20 34.0547C20.5523 34.0547 21 33.607 21 33.0547C21 32.5024 20.5523 32.0547 20 32.0547C19.4477 32.0547 19 32.5024 19 33.0547C19 33.607 19.4477 34.0547 20 34.0547Z" stroke="white" stroke-width="2" stroke-linecap="round" stroke-linejoin="round"/>
<path d="M1 13.0547H5L7.68 26.4447C7.77144 26.9051 8.02191 27.3187 8.38755 27.613C8.75318 27.9073 9.2107 28.0637 9.68 28.0547L14.54 24.0547L19.4 28.0547C19.8693 28.0637 20.3268 27.9073 20.6925 27.613C21.0581 27.3187 21.3086 26.9051 21.4 26.4447L23 18.0547" stroke="white" stroke-width="2" stroke-linecap="round" stroke-linejoin="round"/>
</g>
<path d="M38.3198 19.2256L37.4702 19.8774C37.0015 19.2671 36.4375 18.8057 35.7783 18.4932C35.124 18.1758 34.4038 18.0171 33.6177 18.0171C32.7583 18.0171 31.9624 18.2246 31.23 18.6396C30.4976 19.0498 29.9287 19.604 29.5234 20.3022C29.123 20.9956 28.9229 21.7769 28.9229 22.646C28.9229 23.9595 29.3721 25.0557 30.2705 25.9346C31.1738 26.8135 32.3115 27.2529 33.6836 27.2529C35.1924 27.2529 36.4546 26.6621 37.4702 25.4805L38.3198 26.125C37.7827 26.8086 37.1113 27.3384 36.3057 27.7144C35.5049 28.0854 34.6089 28.271 33.6177 28.271C31.7329 28.271 30.2461 27.6436 29.1572 26.3887C28.2441 25.3291 27.7876 24.0498 27.7876 22.5508C27.7876 20.9736 28.3394 19.6479 29.4429 18.5737C30.5513 17.4946 31.938 16.9551 33.603 16.9551C34.6089 16.9551 35.5171 17.1553 36.3276 17.5557C37.1382 17.9512 37.8022 18.5078 38.3198 19.2256ZM48.2588 20.0312V28H47.248V26.6304C46.8184 27.1528 46.335 27.5459 45.7979 27.8096C45.2656 28.0732 44.6821 28.2051 44.0474 28.2051C42.9194 28.2051 41.9551 27.7974 41.1543 26.9819C40.3584 26.1616 39.9604 25.1655 39.9604 23.9937C39.9604 22.8462 40.3633 21.8647 41.1689 21.0493C41.9746 20.2339 42.9438 19.8262 44.0767 19.8262C44.731 19.8262 45.3218 19.9653 45.8491 20.2437C46.3813 20.522 46.8477 20.9395 47.248 21.4961V20.0312H48.2588ZM44.1572 20.8149C43.5859 20.8149 43.0586 20.9565 42.5752 21.2397C42.0918 21.5181 41.7061 21.9111 41.418 22.4189C41.1348 22.9268 40.9932 23.4639 40.9932 24.0303C40.9932 24.5918 41.1372 25.1289 41.4253 25.6416C41.7134 26.1543 42.0991 26.5547 42.5825 26.8428C43.0708 27.126 43.5933 27.2676 44.1499 27.2676C44.7114 27.2676 45.2437 27.126 45.7466 26.8428C46.2495 26.5596 46.6353 26.1763 46.9038 25.6929C47.1772 25.2095 47.314 24.665 47.314 24.0596C47.314 23.1367 47.0088 22.3652 46.3984 21.7451C45.793 21.125 45.0459 20.8149 44.1572 20.8149ZM50.1851 20.0312H51.2324V21.1958C51.5449 20.7368 51.8745 20.395 52.2212 20.1704C52.5679 19.9409 52.9292 19.8262 53.3052 19.8262C53.5884 19.8262 53.8911 19.9165 54.2134 20.0972L53.6787 20.9614C53.4639 20.8687 53.2832 20.8223 53.1367 20.8223C52.7949 20.8223 52.4653 20.9639 52.1479 21.2471C51.8306 21.5254 51.5889 21.96 51.4229 22.5508C51.2959 23.0049 51.2324 23.9229 51.2324 25.3047V28H50.1851V20.0312ZM55.9785 17.0723H57.0112V20.0312H58.6372V20.9102H57.0112V28H55.9785V20.9102H54.5796V20.0312H55.9785V17.0723Z" fill="white"/>
<defs>
<clipPath id="clip0_0_663">
<rect width="24" height="24" fill="white" transform="translate(0 12.0547)"/>
</clipPath>
</defs>
</svg>
