<svg width="136" height="48" viewBox="0 0 136 48" fill="none" xmlns="http://www.w3.org/2000/svg">
<path d="M3 12C11.0057 12 23.5 12 23.5 12L32.5 35.5L41 12L49 35.5C49 35.5 54.79 21.1773 58.5 12M66 12V35.5M75 35.5C75 26.3227 75 12 75 12L90.5 34.5V12" stroke="white" stroke-width="5" stroke-linecap="round" stroke-linejoin="round"/>
<circle cx="33" cy="44.5" r="3.5" fill="white"/>
<circle cx="50" cy="44.5" r="3.5" fill="white"/>
<circle cx="66" cy="3.5" r="3.5" fill="white"/>
<path d="M100.471 25.233C101.13 25.233 101.459 24.9417 101.459 24.359C101.459 24.1563 101.313 23.9663 101.022 23.789C100.743 23.6117 100.395 23.4343 99.977 23.257C99.5717 23.0797 99.16 22.8833 98.742 22.668C98.3367 22.44 97.9883 22.1297 97.697 21.737C97.4183 21.3443 97.279 20.8947 97.279 20.388C97.279 19.5393 97.6527 18.7983 98.4 18.165C99.1473 17.5317 100.009 17.215 100.984 17.215C101.44 17.215 101.883 17.272 102.314 17.386C102.757 17.4873 103.182 17.652 103.587 17.88L102.314 20.198C102.225 20.122 102.111 20.027 101.972 19.913C101.833 19.799 101.567 19.6533 101.174 19.476C100.794 19.286 100.452 19.191 100.148 19.191C99.8567 19.191 99.6287 19.2607 99.464 19.4C99.312 19.5267 99.236 19.7103 99.236 19.951C99.236 20.179 99.4513 20.4133 99.882 20.654C100.325 20.882 100.807 21.0973 101.326 21.3C101.845 21.49 102.32 21.813 102.751 22.269C103.194 22.7123 103.416 23.2443 103.416 23.865C103.416 24.7517 103.049 25.5307 102.314 26.202C101.592 26.8733 100.756 27.209 99.806 27.209C99.198 27.209 98.628 27.076 98.096 26.81C97.5767 26.544 97.203 26.278 96.975 26.012L96.633 25.613L98.134 23.865C98.21 23.9663 98.3177 24.093 98.457 24.245C98.5963 24.397 98.8687 24.5997 99.274 24.853C99.692 25.1063 100.091 25.233 100.471 25.233ZM105.821 17.804V15.733L108.386 15.239L108.139 17.804H110.438L110.229 19.362H108.063L107.968 23.333C107.968 23.9283 108.025 24.3273 108.139 24.53C108.253 24.72 108.462 24.815 108.766 24.815C109.07 24.815 109.475 24.7453 109.982 24.606L110.096 25.955C109.26 26.6517 108.525 27 107.892 27C107.258 27 106.739 26.772 106.334 26.316C105.928 25.8473 105.726 25.2393 105.726 24.492L105.84 22.364L105.821 19.362H104.51L104.719 17.804H105.821ZM111.263 23.029C111.263 21.4077 111.7 20.0333 112.574 18.906C113.448 17.7787 114.468 17.215 115.633 17.215C116.811 17.215 117.723 17.595 118.369 18.355C119.028 19.115 119.357 20.122 119.357 21.376C119.357 23.048 118.933 24.4413 118.084 25.556C117.248 26.658 116.191 27.209 114.911 27.209C113.86 27.209 112.986 26.8163 112.289 26.031C111.605 25.233 111.263 24.2323 111.263 23.029ZM117.229 22.364C117.229 20.5273 116.602 19.609 115.348 19.609C114.044 19.609 113.391 20.4703 113.391 22.193C113.391 23.0923 113.575 23.7953 113.942 24.302C114.31 24.8087 114.791 25.062 115.386 25.062C115.994 25.062 116.45 24.834 116.754 24.378C117.071 23.9093 117.229 23.238 117.229 22.364ZM120.79 17.823L123.089 17.329C123.203 18.3043 123.279 19.229 123.317 20.103C124.47 18.317 125.553 17.424 126.566 17.424L126.357 20.388C125.623 20.388 125.04 20.4577 124.609 20.597C124.191 20.7237 123.761 20.9833 123.317 21.376V22.06L123.526 26.525L120.98 27L121.208 22.383C121.158 20.6857 121.018 19.1657 120.79 17.823ZM131.192 25.062C131.559 25.062 131.946 24.967 132.351 24.777C132.756 24.587 133.073 24.397 133.301 24.207L133.643 23.922L134.517 24.986C134.39 25.2013 134.194 25.4483 133.928 25.727C133.662 26.0057 133.39 26.2463 133.111 26.449C132.845 26.639 132.484 26.8163 132.028 26.981C131.585 27.133 131.122 27.209 130.641 27.209C129.615 27.209 128.779 26.8227 128.133 26.05C127.487 25.2647 127.164 24.2577 127.164 23.029C127.164 21.4837 127.614 20.1283 128.513 18.963C129.412 17.7977 130.464 17.215 131.667 17.215C132.592 17.215 133.307 17.4747 133.814 17.994C134.333 18.5133 134.593 19.2417 134.593 20.179C134.593 20.7363 134.498 21.3697 134.308 22.079L133.928 22.478L129.178 22.915C129.393 24.3463 130.065 25.062 131.192 25.062ZM131.192 19.172C130.635 19.172 130.166 19.4 129.786 19.856C129.406 20.2993 129.184 20.8693 129.121 21.566L132.351 21.167C132.389 20.8757 132.408 20.635 132.408 20.445C132.408 19.5963 132.003 19.172 131.192 19.172Z" fill="white"/>
</svg>
